HIERARCHY
ROOT root
{
	OFFSET 0.000000 0.000000 0.000000
	CHANNELS 6 Xposition Yposition Zposition Zrotation Yrotation Xrotation
	JOINT lhip
	{
		OFFSET 0.058581 -0.082280 -0.017664
		CHANNELS 3 Zrotation Yrotation Xrotation
		JOINT lknee
		{
			OFFSET 0.043451 -0.386469 0.008037
			CHANNELS 3 Zrotation Yrotation Xrotation
			JOINT lankle
			{
				OFFSET -0.014790 -0.426874 -0.037428
				CHANNELS 3 Zrotation Yrotation Xrotation
				JOINT ltoe
				{
					OFFSET 0.041054 -0.060286 0.122042
					CHANNELS 3 Zrotation Yrotation Xrotation
					End Site
					{
						OFFSET 0.000000 0.000000 0.000000
					}
				}
			}
		}
	}
	JOINT rhip
	{
		OFFSET -0.060310 -0.090513 -0.013543
		CHANNELS 3 Zrotation Yrotation Xrotation
		JOINT rknee
		{
			OFFSET -0.043257 -0.383688 -0.004843
			CHANNELS 3 Zrotation Yrotation Xrotation
			JOINT rankle
			{
				OFFSET 0.019056 -0.420046 -0.034562
				CHANNELS 3 Zrotation Yrotation Xrotation
				JOINT rtoe
				{
					OFFSET -0.034840 -0.062106 0.130323
					CHANNELS 3 Zrotation Yrotation Xrotation
					End Site
					{
						OFFSET 0.000000 0.000000 0.000000
					}
				}
			}
		}
	}
	JOINT lowerback
	{
		OFFSET 0.004439 0.124404 -0.038385
		CHANNELS 3 Zrotation Yrotation Xrotation
		JOINT upperback
		{
			OFFSET 0.004488 0.137956 0.026820
			CHANNELS 3 Zrotation Yrotation Xrotation
			JOINT chest
			{
				OFFSET -0.002265 0.056032 0.002855
				CHANNELS 3 Zrotation Yrotation Xrotation
				JOINT lowerneck
				{
					OFFSET -0.013390 0.211636 -0.033468
					CHANNELS 3 Zrotation Yrotation Xrotation
					JOINT upperneck
					{
						OFFSET 0.010113 0.088937 0.050410
						CHANNELS 3 Zrotation Yrotation Xrotation
						End Site
						{
							OFFSET 0.000000 0.000000 0.000000
						}
					}
				}
				JOINT lclavicle
				{
					OFFSET 0.071702 0.114000 -0.018898
					CHANNELS 3 Zrotation Yrotation Xrotation
					JOINT lshoulder
					{
						OFFSET 0.122921 0.045205 -0.019046
						CHANNELS 3 Zrotation Yrotation Xrotation
						JOINT lelbow
						{
							OFFSET 0.255332 -0.015649 -0.022946
							CHANNELS 3 Zrotation Yrotation Xrotation
							JOINT lwrist
							{
								OFFSET 0.265709 0.012698 -0.007375
								CHANNELS 3 Zrotation Yrotation Xrotation
								End Site
								{
									OFFSET 0.000000 0.000000 0.000000
								}
							}
						}
					}
				}
				JOINT rclavicle
				{
					OFFSET -0.082954 0.112472 -0.023707
					CHANNELS 3 Zrotation Yrotation Xrotation
					JOINT rshoulder
					{
						OFFSET -0.113228 0.046853 -0.008472
						CHANNELS 3 Zrotation Yrotation Xrotation
						JOINT relbow
						{
							OFFSET -0.260127 -0.014369 -0.031269
							CHANNELS 3 Zrotation Yrotation Xrotation
							JOINT rwrist
							{
								OFFSET -0.269108 0.006794 -0.006027
								CHANNELS 3 Zrotation Yrotation Xrotation
								End Site
								{
									OFFSET 0.000000 0.000000 0.000000
								}
							}
						}
					}
				}
			}
		}
	}
}
MOTION
Frames: 10
Frame Time: 0.033333
-0.767722 0.257453 1.001269 89.437518 0.955283 87.347792 4.744368 2.005734 -2.019982 -4.750772 -0.831012 9.125770 -0.882108 9.331228 -7.388302 0.000000 -0.000000 0.000000 -3.297523 -2.507595 -5.639070 4.751962 -2.289463 12.865611 3.081037 -4.018407 -6.345834 0.000000 -0.000000 0.000000 0.355729 0.636729 9.781441 2.310936 -4.106919 6.606171 0.564367 -1.644007 -2.229142 0.081715 -6.758921 -2.078005 2.633545 -10.069184 -0.835713 -23.374998 -5.435819 1.350312 -58.674619 -12.468909 11.980807 8.829502 -21.239741 -6.380235 -2.562049 -6.902374 -3.869731 23.704305 9.757371 1.521509 53.603705 11.637424 11.305923 -13.777089 20.205831 -9.552933 2.784135 4.353201 -2.826056 
-0.765654 0.259618 1.001728 89.700655 1.017115 87.197983 4.690125 2.017795 -1.474791 -4.756988 -0.919611 8.557629 -0.876988 9.148870 -7.264523 0.000000 -0.000000 0.000000 -3.305325 -2.583669 -4.757605 4.666027 -2.226056 11.880019 3.075781 -4.323047 -6.161040 0.000000 -0.000000 0.000000 0.412427 0.544976 9.420365 2.249315 -4.247787 6.561203 0.486080 -1.796261 -2.189912 0.275067 -8.564947 -2.285393 2.990292 -11.584160 -1.449426 -23.610326 -5.156138 1.932630 -59.548972 -11.958129 12.182550 8.430918 -20.740512 -5.477092 -2.951482 -6.658108 -3.605105 23.650517 9.387555 1.739912 54.505094 10.891695 11.202155 -13.950337 19.638266 -9.781612 2.490317 4.067834 -3.353569 
-0.763364 0.261895 1.001750 89.643210 1.180508 87.067016 4.684833 2.136667 -0.963208 -4.680601 -1.045900 8.106079 -0.925618 9.170408 -7.219667 0.000000 -0.000000 0.000000 -3.276988 -2.631031 -3.928322 4.670329 -2.037092 10.883544 3.153425 -4.477967 -5.898529 0.000000 -0.000000 0.000000 0.612564 0.501319 8.962104 2.220963 -4.246649 6.679312 0.331556 -1.831353 -2.144237 0.411373 -9.920401 -2.618756 3.066808 -12.743452 -1.825527 -24.090004 -4.649028 2.203365 -60.134111 -11.349910 12.538093 7.877698 -20.086810 -4.499266 -3.387661 -6.459921 -3.233934 23.759465 8.886318 1.813377 55.149569 10.071757 11.304549 -13.752103 19.267580 -9.651408 2.342279 3.871995 -3.796500 
-0.760522 0.264066 1.001838 89.270021 1.328298 86.992403 4.721875 2.317720 -0.215453 -4.663825 -1.129340 7.234678 -1.058067 9.299167 -7.042900 0.000000 -0.000000 0.000000 -3.314644 -2.735088 -3.115445 4.738418 -1.693256 9.780101 3.357955 -4.486227 -5.514728 0.000000 -0.000000 0.000000 0.625053 0.579597 8.322637 2.241448 -4.106759 6.828754 0.239374 -1.803711 -2.107084 0.738987 -11.201459 -3.014952 3.183260 -13.815499 -2.128210 -24.748917 -3.695272 2.353434 -60.729714 -10.429080 12.905577 7.362570 -19.240116 -3.111919 -3.989932 -6.361633 -2.434557 24.201365 8.039765 1.862825 55.618837 9.064262 11.595768 -13.163056 18.994077 -8.644941 2.571158 3.728503 -3.541640 
-0.759018 0.264943 1.001964 89.009165 1.382397 87.048313 4.757640 2.492017 0.218880 -4.690769 -1.109700 6.518094 -1.136839 9.318816 -6.863335 0.000000 -0.000000 0.000000 -3.321664 -2.769274 -2.864124 4.734941 -1.528198 9.298620 3.495575 -4.470168 -5.322110 0.000000 -0.000000 0.000000 0.506105 0.614155 7.838359 2.270739 -3.991524 6.903249 0.222719 -1.788225 -2.044908 1.021383 -11.664827 -3.242355 3.307495 -14.249689 -2.337294 -25.054143 -2.972213 2.410519 -61.112373 -9.804609 12.982534 7.294084 -18.826772 -2.536901 -4.156304 -6.312422 -1.990650 24.547966 7.437297 1.874579 55.930565 8.523697 11.772090 -12.852750 18.894441 -7.916350 2.663419 3.633860 -3.120106 
-0.757094 0.265987 1.002078 88.683609 1.422955 87.101571 4.768752 2.746086 0.817945 -4.711231 -1.068883 5.538500 -1.215773 9.326482 -6.624903 0.000000 -0.000000 0.000000 -3.345745 -2.771019 -2.616666 4.704175 -1.367363 8.856761 3.653780 -4.441414 -5.166392 0.000000 -0.000000 0.000000 0.325938 0.583184 7.233455 2.269094 -3.853454 6.976139 0.208141 -1.790377 -1.898337 1.447615 -11.959137 -3.620969 3.486455 -14.585213 -2.600059 -25.324166 -1.923327 2.482458 -61.621246 -8.942401 12.834907 7.409981 -18.275780 -2.230098 -4.008947 -6.478994 -1.716539 24.973569 6.602194 1.886731 56.535641 7.907445 11.899679 -12.614342 18.687672 -7.207786 2.449678 3.617000 -2.651541 
-0.755108 0.267092 1.002138 88.452714 1.436682 87.057573 4.748968 2.942175 1.523598 -4.724424 -1.069186 4.528280 -1.299670 9.347140 -6.351545 0.000000 -0.000000 0.000000 -3.416459 -2.718222 -2.281485 4.678958 -1.245570 8.489345 3.798503 -4.452370 -5.069022 0.000000 -0.000000 0.000000 0.197936 0.471139 6.839179 2.202323 -3.747049 6.901009 0.206686 -1.856934 -1.687755 1.817901 -12.034420 -4.028859 3.674619 -14.665103 -2.816584 -25.571864 -0.889952 2.635995 -61.928512 -8.139441 12.395669 7.692964 -17.624183 -2.233503 -3.907602 -6.796441 -1.737256 25.354016 5.739260 1.890654 57.255173 7.351936 11.848284 -12.610287 18.393949 -6.937955 2.100189 3.688822 -2.560488 
-0.753167 0.268152 1.002169 88.340581 1.479567 87.016648 4.749842 3.104352 2.166721 -4.713814 -1.134289 3.584630 -1.398130 9.344550 -6.050094 0.000000 -0.000000 0.000000 -3.457143 -2.677362 -1.918453 4.658241 -1.154524 8.076976 3.899341 -4.503875 -4.967179 0.000000 -0.000000 0.000000 0.153436 0.317602 6.459683 2.147758 -3.724891 6.862146 0.195654 -1.951231 -1.519757 2.088046 -11.982525 -4.394259 3.849628 -14.605777 -3.019689 -25.826931 0.024178 2.759291 -61.987058 -7.490953 11.797409 8.028313 -16.713404 -2.689710 -3.951279 -6.868043 -2.045905 25.701366 4.923467 1.862238 57.854206 6.839683 11.690002 -12.654854 18.084582 -7.096363 1.848713 3.663633 -2.868776 
-0.751380 0.269055 1.002215 88.283951 1.544657 87.030047 4.789966 3.268324 2.677851 -4.721354 -1.263740 2.738109 -1.508671 9.350944 -5.753334 0.000000 -0.000000 0.000000 -3.473944 -2.685294 -1.544755 4.670765 -1.059870 7.529565 3.971937 -4.581245 -4.816306 0.000000 -0.000000 0.000000 0.115364 0.183034 5.988933 2.149953 -3.770446 6.892836 0.209366 -2.029864 -1.420860 2.268002 -11.869920 -4.656354 3.970410 -14.515607 -3.205973 -25.989106 0.724663 2.753322 -61.908764 -6.998211 11.328383 8.391436 -15.458573 -3.060998 -4.123546 -6.654726 -1.992463 25.991706 4.248904 1.787748 58.220259 6.346733 11.585869 -12.603397 17.638281 -7.109673 1.675244 3.564864 -2.882635 
-0.749166 0.270077 1.002267 88.225798 1.637299 87.058077 4.879611 3.462033 3.307487 -4.737970 -1.377061 1.692823 -1.665261 9.307802 -5.379554 0.000000 -0.000000 0.000000 -3.495970 -2.751904 -0.957940 4.723551 -0.901404 6.611518 4.108099 -4.674293 -4.501967 0.000000 -0.000000 0.000000 0.066455 0.070647 5.401426 2.180689 -3.842302 6.845565 0.280691 -2.123627 -1.361897 2.367980 -11.768439 -4.753576 4.037363 -14.405432 -3.275467 -25.997182 1.290094 2.745453 -61.718617 -6.616823 10.879205 8.960277 -13.729264 -3.290323 -4.357339 -6.291437 -1.480263 26.175977 3.671499 1.748678 58.475964 5.799388 11.545579 -12.528913 16.814681 -6.750588 1.455487 3.421929 -2.357925 
